<svg width="50" height="50" viewBox="0 0 50 50" fill="none" xmlns="http://www.w3.org/2000/svg">
<path d="M19.8791 11.264C19.9687 11.2653 20.0582 11.2664 20.1477 11.2674C20.3654 11.27 20.5831 11.2743 20.8008 11.2793C20.7995 11.3204 20.7982 11.3615 20.7969 11.4039C20.7927 11.5577 20.7897 11.7116 20.7874 11.8655C20.7861 11.9319 20.7845 11.9982 20.7824 12.0645C20.7566 12.5058 20.7566 12.5058 20.9116 12.9057C21.1202 13.1113 21.2382 13.1489 21.5301 13.15C21.5799 13.1508 21.6297 13.1517 21.681 13.1525C21.8892 13.1271 22.0187 13.0473 22.1558 12.8906C22.4436 12.43 22.3303 11.7413 22.3633 11.2793C24.1196 11.2793 25.876 11.2793 27.6855 11.2793C27.7339 11.9077 27.7339 11.9077 27.7832 12.5488C27.8315 12.6939 27.8799 12.8389 27.9297 12.9883C27.9941 13.0205 28.0586 13.0527 28.125 13.0859C28.1572 13.1021 28.1895 13.1182 28.2227 13.1348C28.5552 13.1718 28.7861 13.1462 29.0527 12.9395C29.2976 12.5919 29.1934 12.1431 29.1504 11.7432C29.1434 11.6759 29.1434 11.6759 29.1363 11.6074C29.1249 11.498 29.1133 11.3886 29.1016 11.2793C29.3856 11.2732 29.6695 11.2688 29.9536 11.2659C30.0501 11.2647 30.1465 11.263 30.243 11.2609C30.3823 11.2579 30.5215 11.2565 30.6608 11.2555C30.7034 11.2542 30.746 11.2529 30.7899 11.2516C31.1597 11.2515 31.4261 11.3802 31.7043 11.6207C31.7296 11.6511 31.7549 11.6814 31.781 11.7126C31.8071 11.7427 31.8331 11.7728 31.86 11.8038C32.0436 12.0788 32.1105 12.3611 32.1623 12.6822C32.1692 12.7227 32.1761 12.7633 32.1832 12.805C32.2052 12.9342 32.2266 13.0635 32.2479 13.1928C32.2761 13.3613 32.3046 13.5299 32.3332 13.6984C32.3403 13.7407 32.3475 13.7829 32.3548 13.8265C32.4117 14.1588 32.4765 14.4891 32.5436 14.8195C32.6275 15.2332 32.705 15.6478 32.778 16.0636C32.7929 16.1477 32.8081 16.2318 32.8237 16.3158C33.0829 17.7174 32.9678 18.9298 32.1747 20.1477C32.1118 20.2361 32.0478 20.3236 31.9824 20.4102C31.9359 20.472 31.9359 20.472 31.8884 20.5351C31.4945 21.0411 31.0712 21.4798 30.5664 21.875C30.5313 21.9053 30.4962 21.9356 30.46 21.9667C29.8874 22.4547 29.2058 22.8275 28.5431 23.1781C28.5053 23.1981 28.4675 23.2181 28.4286 23.2387C28.2334 23.3397 28.0435 23.4236 27.832 23.4863C27.8491 23.439 27.8663 23.3917 27.8839 23.3429C27.9456 23.1241 27.9381 22.9246 27.8809 22.7051C27.773 22.5303 27.6782 22.4408 27.4902 22.3633C27.2479 22.3289 27.055 22.3373 26.8341 22.4457C26.6509 22.611 26.5731 22.7206 26.5411 22.9675C26.5663 23.1761 26.6212 23.3283 26.7578 23.4863C26.8819 23.5803 27.0108 23.658 27.1484 23.7305C27.0299 23.8671 26.9119 23.9249 26.7456 23.9933C26.6934 24.0148 26.6412 24.0363 26.5874 24.0585C26.5026 24.0925 26.5026 24.0925 26.416 24.1272C26.3571 24.1509 26.2982 24.1746 26.2375 24.1991C25.1495 24.6329 24.0352 24.9576 22.9004 25.2441C22.85 25.257 22.7996 25.2699 22.7477 25.2832C21.5241 25.5944 20.2795 25.8612 19.0308 26.0498C18.9798 26.0576 18.9287 26.0654 18.8762 26.0735C18.1808 26.172 17.6774 26.1276 17.094 25.7132C16.5519 25.2959 16.1848 24.648 16.0645 23.9746C15.966 22.9505 16.2405 21.9124 16.4338 20.9127C16.5812 20.149 16.7111 19.3827 16.8396 18.6157C17.0065 17.6199 17.1808 16.6259 17.3664 15.6334C17.4649 15.1053 17.5589 14.5767 17.6476 14.0469C17.6574 13.9886 17.6672 13.9303 17.6773 13.8702C17.7248 13.5877 17.7718 13.3051 17.8177 13.0223C17.8348 12.9204 17.8519 12.8184 17.869 12.7165C17.8762 12.6706 17.8834 12.6246 17.8908 12.5773C17.966 12.1377 18.1321 11.7363 18.4942 11.4572C18.924 11.1988 19.3957 11.2525 19.8791 11.264Z" fill="#EA6545"/>
<path d="M33.3008 19.4336C33.333 19.4497 33.3652 19.4658 33.3984 19.4824C33.4248 19.5976 33.4448 19.7091 33.4618 19.8257C33.4673 19.8614 33.4729 19.8971 33.4787 19.9338C33.4971 20.0518 33.5149 20.17 33.5327 20.2881C33.5583 20.4539 33.5841 20.6197 33.6102 20.7855C33.6167 20.8277 33.6233 20.8699 33.6301 20.9133C33.6736 21.1872 33.7222 21.4595 33.7757 21.7316C34.2311 24.0513 34.2311 24.0513 33.5817 25.0326C33.2261 25.5055 32.8103 25.8569 32.3277 26.1942C31.9739 26.4418 31.6486 26.711 31.3251 26.9968C31.176 27.1286 31.0234 27.2554 30.8685 27.3804C30.6558 27.5526 30.4528 27.7332 30.2505 27.9175C30.0792 28.0698 29.9008 28.2128 29.7226 28.3569C29.5937 28.4636 29.4694 28.5738 29.3457 28.6865C29.1394 28.8743 28.9263 29.0511 28.7096 29.2267C28.459 29.4322 28.2142 29.6445 27.9687 29.856C27.8257 29.9791 27.6824 30.1019 27.5391 30.2246C27.511 30.2487 27.483 30.2727 27.4541 30.2975C27.3094 30.4216 27.1646 30.5455 27.0195 30.6692C26.7627 30.8884 26.507 31.108 26.2573 31.3355C25.3594 32.1464 25.3594 32.1464 24.8047 32.1289C24.5408 32.0497 24.4295 31.9541 24.2676 31.7383C24.1776 31.6541 24.0843 31.5747 23.9906 31.4947C23.8638 31.3851 23.7408 31.272 23.6176 31.1584C23.3959 30.9561 23.1673 30.7653 22.9338 30.5769C22.8053 30.4709 22.6817 30.3612 22.5586 30.249C22.3965 30.1014 22.2316 29.9597 22.0612 29.8218C21.8438 29.6458 21.6313 29.4652 21.4203 29.2816C21.3894 29.2547 21.3584 29.2278 21.3266 29.2001C21.2638 29.1454 21.201 29.0908 21.1382 29.0361C20.7502 28.6989 20.3598 28.3654 19.9606 28.0416C19.776 27.8901 19.5948 27.7346 19.4132 27.5793C19.2727 27.46 19.131 27.3472 18.9789 27.243C18.9139 27.1962 18.9139 27.1962 18.8477 27.1484C18.8477 27.1162 18.8477 27.084 18.8477 27.0508C18.892 27.0434 18.9364 27.0361 18.9821 27.0285C20.7548 26.7337 22.5315 26.4116 24.2473 25.8674C24.3699 25.8286 24.4928 25.7908 24.6157 25.753C26.7299 25.0988 28.8409 24.2739 30.6641 22.998C30.7071 22.968 30.7071 22.968 30.751 22.9373C30.9219 22.8165 31.0869 22.6897 31.25 22.5586C31.2775 22.5365 31.3051 22.5145 31.3335 22.4917C32.3123 21.7009 33.0135 20.6686 33.3008 19.4336Z" fill="#6252A0"/>
<path d="M29.8828 14.3066C30.0614 14.4062 30.1596 14.4777 30.2734 14.6484C30.304 14.9591 30.2678 15.0756 30.0781 15.332C29.9643 15.4704 29.8458 15.6045 29.7267 15.7383C29.6052 15.8781 29.5275 15.9804 29.4922 16.1621C29.5496 16.2044 29.5496 16.2044 29.6082 16.2476C29.7318 16.3535 29.7768 16.4052 29.834 16.5527C29.8446 16.8391 29.757 17.0985 29.6448 17.3584C29.4813 17.7564 29.3438 18.1615 29.2098 18.5701C28.8808 19.5728 28.8808 19.5728 28.717 20.0073C28.7049 20.041 28.6927 20.0746 28.6801 20.1093C28.5738 20.3832 28.4153 20.5421 28.1738 20.7031C28.0604 20.7157 28.0604 20.7157 27.9243 20.7162C27.8469 20.7168 27.8469 20.7168 27.7679 20.7174C27.7113 20.7174 27.6546 20.7174 27.5963 20.7173C27.5367 20.7176 27.477 20.718 27.4156 20.7183C27.2519 20.7191 27.0883 20.7194 26.9247 20.7195C26.788 20.7196 26.6514 20.7199 26.5148 20.7203C26.1924 20.7211 25.87 20.7213 25.5476 20.7212C25.2151 20.7212 24.8827 20.7222 24.5502 20.7237C24.2647 20.725 23.9792 20.7255 23.6937 20.7255C23.5232 20.7254 23.3527 20.7257 23.1822 20.7268C22.992 20.7279 22.8018 20.7274 22.6116 20.7268C22.5552 20.7274 22.4988 20.7279 22.4407 20.7285C22.06 20.7255 22.06 20.7255 21.8686 20.6142C21.5814 20.2793 21.4667 19.8185 21.3196 19.4092C21.2834 19.3093 21.2471 19.2095 21.2109 19.1096C21.1872 19.0445 21.1636 18.9794 21.14 18.9142C21.0603 18.694 20.9786 18.4746 20.8954 18.2556C20.771 17.9253 20.6509 17.5935 20.5317 17.2612C20.4996 17.1718 20.4674 17.0825 20.4352 16.9931C20.3196 16.6698 20.2113 16.3459 20.1172 16.0156C20.0783 16.0166 20.0394 16.0177 19.9993 16.0187C19.8229 16.0228 19.6466 16.0253 19.4702 16.0278C19.3783 16.0303 19.3783 16.0303 19.2846 16.0328C19.1963 16.0337 19.1963 16.0337 19.1063 16.0347C19.025 16.0362 19.025 16.0362 18.942 16.0378C18.7657 16.0105 18.7112 15.9599 18.6035 15.8203C18.5431 15.6392 18.5272 15.4715 18.5547 15.2832C18.6423 15.146 18.7021 15.063 18.8477 14.9902C18.9801 14.9842 19.1113 14.981 19.2438 14.9803C19.2832 14.98 19.3226 14.9798 19.3632 14.9795C19.4466 14.979 19.53 14.9787 19.6135 14.9785C19.7408 14.978 19.8681 14.9765 19.9954 14.975C20.0765 14.9747 20.1576 14.9744 20.2387 14.9742C20.2766 14.9736 20.3146 14.973 20.3537 14.9724C20.5778 14.9733 20.7197 14.9993 20.8984 15.1367C21.0878 15.3292 21.1552 15.5276 21.228 15.7806C21.2388 15.816 21.2496 15.8513 21.2606 15.8877C21.3379 16.1456 21.3379 16.1456 21.3379 16.2598C22.8848 16.2598 24.4316 16.2598 26.0254 16.2598C26.0254 16.1631 26.0254 16.0664 26.0254 15.9668C26.1743 15.6217 26.4486 15.3858 26.7578 15.1855C26.7903 15.1643 26.8228 15.143 26.8562 15.1211C27.2301 14.917 27.7276 14.9236 28.1322 15.0311C28.3083 15.0997 28.4559 15.1783 28.6133 15.2832C28.7931 15.1083 28.9663 14.931 29.129 14.74C29.5596 14.246 29.5596 14.246 29.8828 14.3066Z" fill="#FDFBFB"/>
<path d="M32.7637 17.1387C32.8604 17.1628 32.8604 17.1628 32.959 17.1875C32.9944 18.4045 32.7252 19.4272 31.9824 20.4102C31.9359 20.472 31.9359 20.472 31.8884 20.5351C31.4945 21.0411 31.0712 21.4798 30.5664 21.875C30.5313 21.9053 30.4962 21.9356 30.46 21.9667C29.8874 22.4547 29.2058 22.8275 28.5431 23.1781C28.5053 23.1981 28.4675 23.2181 28.4286 23.2387C28.2334 23.3397 28.0435 23.4236 27.832 23.4863C27.8492 23.439 27.8663 23.3917 27.8839 23.3429C27.9456 23.1241 27.9381 22.9246 27.8809 22.7051C27.773 22.5303 27.6782 22.4408 27.4902 22.3633C27.2479 22.3289 27.055 22.3373 26.8341 22.4457C26.6509 22.611 26.5731 22.7206 26.5411 22.9675C26.5663 23.176 26.6212 23.3283 26.7578 23.4863C26.8819 23.5803 27.0108 23.658 27.1484 23.7305C27.0299 23.8671 26.9119 23.9249 26.7456 23.9933C26.6673 24.0256 26.6673 24.0256 26.5874 24.0585C26.5309 24.0812 26.4743 24.1038 26.416 24.1272C26.3571 24.1509 26.2982 24.1746 26.2375 24.1991C25.1495 24.6329 24.0352 24.9576 22.9004 25.2441C22.85 25.257 22.7996 25.2699 22.7477 25.2832C21.5241 25.5944 20.2795 25.8612 19.0308 26.0498C18.9543 26.0615 18.9543 26.0615 18.8762 26.0735C18.1808 26.172 17.6774 26.1276 17.094 25.7132C16.5519 25.2959 16.1848 24.648 16.0645 23.9746C15.9582 22.869 16.2727 21.7292 16.4813 20.649C16.4885 20.612 16.4956 20.575 16.503 20.5369C16.5169 20.4647 16.5309 20.3925 16.5449 20.3203C16.5949 20.0615 16.6371 19.8021 16.6741 19.541C16.6992 19.4336 16.6992 19.4336 16.7969 19.3359C16.801 19.5271 16.7936 19.7051 16.7664 19.8944C16.7295 20.25 16.7889 20.5969 16.8457 20.9473C16.8526 20.9899 16.8595 21.0325 16.8666 21.0765C16.8891 21.2126 16.9129 21.3485 16.9373 21.4844C16.9445 21.5269 16.9518 21.5695 16.9593 21.6134C17.0654 22.1787 17.3643 22.6845 17.8436 23.0164C17.917 23.0606 17.9913 23.1034 18.0664 23.1445C18.0993 23.163 18.1322 23.1814 18.1662 23.2004C19.2387 23.7377 20.6432 23.506 21.782 23.3576C21.9916 23.3314 22.2017 23.3107 22.4121 23.291C22.4282 23.2266 22.4443 23.1621 22.4609 23.0957C22.4881 23.1481 22.5153 23.2004 22.5433 23.2544C22.6434 23.4245 22.7217 23.5378 22.9004 23.6328C23.1624 23.6717 23.3708 23.6644 23.6115 23.5504C23.7962 23.3752 23.8332 23.2275 23.8525 22.9797C23.8484 22.7525 23.7657 22.6385 23.6135 22.4762C23.451 22.3433 23.287 22.3581 23.0865 22.3602C23.0335 22.3607 22.9804 22.3611 22.9258 22.3616C22.8852 22.3621 22.8446 22.3627 22.8027 22.3633C22.8188 22.3311 22.835 22.2988 22.8516 22.2656C22.916 22.2656 22.9805 22.2656 23.0469 22.2656C23.0469 22.2334 23.0469 22.2012 23.0469 22.168C22.9987 22.1691 22.9504 22.1702 22.9008 22.1714C22.8069 22.1727 22.8069 22.1727 22.7112 22.1741C22.6489 22.1752 22.5866 22.1763 22.5224 22.1775C22.3633 22.168 22.3633 22.168 22.2656 22.0703C22.3098 22.0701 22.3098 22.0701 22.3549 22.07C23.0722 22.0671 23.7894 22.0634 24.5067 22.0588C24.8535 22.0566 25.2004 22.0547 25.5473 22.0534C25.8819 22.0522 26.2165 22.0502 26.5512 22.0477C26.6789 22.0469 26.8067 22.0463 26.9345 22.046C27.1132 22.0455 27.292 22.0442 27.4707 22.0426C27.5237 22.0427 27.5767 22.0427 27.6313 22.0428C27.9434 22.0389 28.129 22.0126 28.36 21.7896C28.4407 21.6366 28.4278 21.5079 28.418 21.3379C28.4502 21.354 28.4824 21.3701 28.5156 21.3867C28.5156 21.4189 28.5156 21.4512 28.5156 21.4844C29.0493 21.2442 29.5574 21.0037 30.0293 20.6543C30.0551 20.6354 30.0808 20.6164 30.1074 20.5969C30.5665 20.2578 30.9982 19.8921 31.3965 19.4824C31.4327 19.4472 31.469 19.4119 31.5063 19.3756C31.5507 19.3303 31.595 19.285 31.6406 19.2383C31.674 19.2042 31.7073 19.1701 31.7417 19.1349C32.2744 18.5697 32.6002 17.8965 32.7637 17.1387Z" fill="#8A1C83"/>
<path d="M25.8789 36.1328C26.3327 36.4093 26.6863 36.8479 26.8311 37.3657C26.9547 38.1603 26.8365 38.8627 26.4069 39.5453C26.1493 39.8859 25.7028 40.1418 25.2802 40.201C25.164 40.2086 25.0493 40.2109 24.9329 40.21C24.8718 40.2097 24.8718 40.2097 24.8094 40.2093C24.3242 40.1959 24.0718 40.0386 23.7305 39.6973C23.7144 40.3096 23.6982 40.9219 23.6816 41.5527C23.2949 41.5527 22.9082 41.5527 22.5098 41.5527C22.5098 39.7158 22.5098 37.8789 22.5098 35.9863C22.8643 35.9863 23.2187 35.9863 23.584 35.9863C23.6328 36.0352 23.6328 36.0352 23.6376 36.1361C23.637 36.1763 23.6364 36.2165 23.6359 36.2579C23.6354 36.2983 23.635 36.3386 23.6345 36.3802C23.634 36.4114 23.6334 36.4425 23.6328 36.4746C23.665 36.4746 23.6973 36.4746 23.7305 36.4746C23.7428 36.445 23.7551 36.4154 23.7679 36.385C23.8364 36.2647 23.8935 36.2218 24.0112 36.1511C24.0592 36.1215 24.0592 36.1215 24.1081 36.0912C24.6358 35.8238 25.362 35.8475 25.8789 36.1328Z" fill="#05488F"/>
<path d="M37.9883 34.4238C38.375 34.4238 38.7617 34.4238 39.1602 34.4238C39.1843 35.3906 39.1843 35.3906 39.209 36.377C39.3379 36.2803 39.4668 36.1836 39.5996 36.084C39.8623 35.9434 40.0772 35.9121 40.3687 35.9161C40.4267 35.9169 40.4267 35.9169 40.486 35.9176C41.0122 35.9334 41.36 36.0891 41.7402 36.4567C42.1523 36.9082 42.2938 37.4036 42.2943 38.0035C42.2949 38.0434 42.2955 38.0833 42.2961 38.1244C42.2975 38.7143 42.0987 39.2589 41.6992 39.6973C41.274 40.1019 40.7854 40.2168 40.2136 40.2121C39.8596 40.1977 39.5791 40.1123 39.3209 39.86C39.2517 39.7797 39.2517 39.7797 39.1602 39.6484C39.144 39.7935 39.1279 39.9385 39.1113 40.0879C38.7407 40.0879 38.3701 40.0879 37.9883 40.0879C37.9883 38.2188 37.9883 36.3496 37.9883 34.4238Z" fill="#EA6319"/>
<path d="M27.5879 34.4238C27.9907 34.4238 28.3936 34.4238 28.8086 34.4238C28.8086 35.1812 28.8086 35.9385 28.8086 36.7188C29.6143 36.7188 30.4199 36.7188 31.25 36.7188C31.25 35.9614 31.25 35.2041 31.25 34.4238C31.6528 34.4238 32.0557 34.4238 32.4707 34.4238C32.4707 36.293 32.4707 38.1621 32.4707 40.0879C32.0679 40.0879 31.665 40.0879 31.25 40.0879C31.25 39.3306 31.25 38.5732 31.25 37.793C30.4443 37.793 29.6387 37.793 28.8086 37.793C28.8086 38.5503 28.8086 39.3076 28.8086 40.0879C28.4058 40.0879 28.0029 40.0879 27.5879 40.0879C27.5879 38.2188 27.5879 36.3496 27.5879 34.4238Z" fill="#F2781A"/>
<path d="M21.2633 36.4243C21.6047 36.7388 21.896 37.1786 21.9317 37.6537C21.9339 37.7764 21.9353 37.8991 21.936 38.0218C21.937 38.0639 21.938 38.1059 21.9391 38.1492C21.9424 38.6994 21.7338 39.1971 21.3654 39.6057C20.812 40.1306 20.1454 40.2111 19.4176 40.1987C18.9012 40.1778 18.4946 39.9418 18.1152 39.5996C17.6792 39.1045 17.511 38.5479 17.519 37.8979C17.5553 37.3556 17.7787 36.8307 18.1763 36.4563C19.0776 35.7145 20.3482 35.6956 21.2633 36.4243Z" fill="#064B92"/>
<path d="M10.2051 34.3079C10.2541 34.3079 10.303 34.308 10.3535 34.3081C10.9269 34.3174 11.6104 34.413 12.1094 34.7168C12.1661 34.8871 12.1513 34.911 12.081 35.0681C12.0549 35.1266 12.0549 35.1266 12.0284 35.1862C12.0005 35.2469 12.0005 35.2469 11.972 35.3088C11.954 35.3497 11.936 35.3905 11.9174 35.4326C11.7806 35.7357 11.7806 35.7357 11.6699 35.791C11.5821 35.7579 11.4958 35.7205 11.4105 35.6812C10.812 35.4238 10.207 35.2879 9.57718 35.5028C9.43445 35.563 9.35743 35.6075 9.27734 35.7422C9.2498 35.9591 9.24727 36.0727 9.34448 36.2671C9.6116 36.496 9.95095 36.5713 10.2844 36.6638C11.8282 37.0943 11.8282 37.0943 12.2559 37.793C12.4285 38.1335 12.4019 38.5967 12.3217 38.9643C12.1601 39.4101 11.8456 39.7308 11.4258 39.9414C10.9578 40.1532 10.5698 40.1944 10.0586 40.1947C9.9739 40.1956 9.9739 40.1956 9.8875 40.1965C9.36781 40.1974 8.86317 40.1523 8.37402 39.9689C8.29169 39.9388 8.29169 39.9388 8.2077 39.908C8.06671 39.848 7.94138 39.7797 7.8125 39.6973C7.88543 39.4608 7.98097 39.2425 8.08716 39.0198C8.10302 38.9862 8.11888 38.9526 8.13522 38.9179C8.17399 38.8358 8.21295 38.7538 8.25195 38.6719C8.44971 38.7352 8.63869 38.8082 8.82874 38.8916C9.23418 39.0594 9.57567 39.12 10.0128 39.1266C10.0497 39.1275 10.0867 39.1283 10.1247 39.1292C10.4391 39.1288 10.6946 39.0592 10.9619 38.8855C11.0572 38.7347 11.0607 38.6187 11.0659 38.4432C11.0185 38.2686 10.9308 38.1986 10.791 38.0859C10.6605 38.0232 10.5267 37.981 10.3882 37.9395C10.3498 37.9272 10.3113 37.915 10.2717 37.9024C10.0784 37.8414 9.88409 37.7846 9.68876 37.7304C9.07583 37.5601 8.4445 37.3546 8.09956 36.7729C7.90338 36.3411 7.90493 35.8642 8.05492 35.4191C8.25914 34.949 8.64698 34.6694 9.1032 34.4658C9.46917 34.3432 9.82023 34.3072 10.2051 34.3079Z" fill="#065098"/>
<path d="M33.3008 19.4336C33.3491 19.4578 33.3491 19.4578 33.3984 19.4824C33.4264 19.6072 33.4482 19.7287 33.4669 19.8549C33.4759 19.9122 33.4759 19.9122 33.4851 19.9706C33.5045 20.0937 33.5232 20.2168 33.5419 20.34C33.5665 20.4998 33.5915 20.6595 33.6164 20.8193C33.6225 20.8586 33.6286 20.8979 33.6349 20.9384C33.6861 21.2651 33.7467 21.5894 33.8111 21.9137C33.8379 22.0703 33.8379 22.0703 33.8379 22.2656C33.7745 22.3324 33.7091 22.3973 33.6426 22.4609C33.5893 22.5501 33.5386 22.6408 33.49 22.7325C32.8955 23.7652 31.7944 24.3542 30.775 24.8986C30.372 25.1149 29.9839 25.3477 29.6051 25.6042C29.5692 25.6283 29.5333 25.6523 29.4964 25.6771C28.8919 26.0935 28.3716 26.5956 27.8595 27.1179C27.7763 27.2025 27.6931 27.2869 27.6097 27.3712C27.5585 27.423 27.5074 27.4749 27.4566 27.5269C27.3378 27.6473 27.2166 27.7612 27.0861 27.8686C26.977 27.9588 26.9116 28.0201 26.8433 28.1403C26.8151 28.1836 26.7869 28.2269 26.7578 28.2715C26.7256 28.2715 26.6934 28.2715 26.6602 28.2715C26.6559 28.2349 26.6517 28.1982 26.6474 28.1605C26.5959 27.7853 26.5159 27.3938 26.2373 27.1166C26.1719 27.0508 26.1719 27.0508 26.1719 26.9531C26.1444 26.9397 26.117 26.9262 26.0887 26.9123C25.9724 26.8533 25.8585 26.7909 25.7446 26.7273C25.6861 26.6946 25.6861 26.6946 25.6264 26.6613C25.5969 26.6448 25.5675 26.6283 25.5371 26.6113C25.5371 26.563 25.5371 26.5146 25.5371 26.4648C25.5792 26.4494 25.6213 26.4339 25.6647 26.4179C26.6864 26.0274 27.6604 25.4663 28.5645 24.8535C28.707 24.7609 28.8504 24.6695 28.9936 24.5779C29.1301 24.4904 29.2659 24.4021 29.4006 24.3118C29.5269 24.2281 29.6551 24.15 29.7852 24.0723C30.1258 23.8576 30.1258 23.8576 30.4077 23.5748C30.5287 23.4237 30.6481 23.3461 30.8105 23.2422C30.9015 23.1653 30.9903 23.0866 31.0783 23.0064C31.1523 22.9492 31.1523 22.9492 31.25 22.9492C31.2548 22.9203 31.2596 22.8913 31.2645 22.8615C31.3057 22.7325 31.3574 22.6849 31.4575 22.5952C31.5764 22.4816 31.6687 22.3777 31.7505 22.2351C31.8412 22.0795 31.9459 21.9489 32.0661 21.8148C32.3177 21.5332 32.5227 21.2408 32.7118 20.9137C32.7337 20.876 32.7556 20.8384 32.7781 20.7996C32.9795 20.4417 33.1376 20.07 33.2397 19.6716C33.2575 19.6035 33.2575 19.6035 33.2756 19.5339C33.2839 19.5008 33.2922 19.4677 33.3008 19.4336Z" fill="#4189BE"/>
<path d="M12.9883 34.4238C13.375 34.4238 13.7617 34.4238 14.1602 34.4238C14.1843 35.4148 14.1843 35.4148 14.209 36.4258C14.354 36.313 14.499 36.2002 14.6484 36.084C14.9128 35.9398 15.1295 35.9138 15.4236 35.9192C15.4625 35.9197 15.5014 35.9203 15.5414 35.9208C15.9741 35.9325 16.2861 36.015 16.6084 36.3167C16.8923 36.6578 17.0475 37.0538 17.0466 37.4937C17.0466 37.5802 17.0466 37.5802 17.0465 37.6684C17.0463 37.7304 17.046 37.7924 17.0458 37.8563C17.0457 37.92 17.0456 37.9836 17.0456 38.0492C17.0454 38.2181 17.0449 38.387 17.0444 38.5559C17.0439 38.7284 17.0436 38.9009 17.0434 39.0734C17.0429 39.4115 17.042 39.7497 17.041 40.0879C16.6382 40.0879 16.2354 40.0879 15.8203 40.0879C15.8185 39.9004 15.8167 39.7129 15.8148 39.5197C15.8125 39.338 15.81 39.1564 15.8075 38.9748C15.8059 38.8486 15.8045 38.7223 15.8034 38.5961C15.8018 38.4147 15.7992 38.2332 15.7965 38.0518C15.7962 37.9954 15.7958 37.939 15.7955 37.8808C15.7941 37.8017 15.7941 37.8017 15.7926 37.7209C15.7918 37.6515 15.7918 37.6515 15.791 37.5806C15.768 37.428 15.708 37.3355 15.625 37.207C15.625 37.1748 15.625 37.1426 15.625 37.1094C15.3233 36.9753 14.957 36.9489 14.6391 37.0436C14.4191 37.1543 14.293 37.3231 14.209 37.5488C14.1803 37.7451 14.1795 37.9395 14.1792 38.1376C14.1784 38.1935 14.1776 38.2494 14.1768 38.3069C14.1744 38.4845 14.1734 38.6621 14.1724 38.8397C14.171 38.9605 14.1695 39.0813 14.168 39.202C14.1642 39.4973 14.1622 39.7926 14.1602 40.0879C13.7734 40.0879 13.3867 40.0879 12.9883 40.0879C12.9883 38.2188 12.9883 36.3496 12.9883 34.4238Z" fill="#055198"/>
<path d="M27.2963 7.67002C28.492 8.83263 28.8044 10.5135 28.9093 12.1094C28.9135 12.1592 28.9178 12.2091 28.9221 12.2605C28.9393 12.5978 28.9393 12.5978 28.8469 12.7339C28.7062 12.8597 28.6225 12.8905 28.4332 12.8937C28.258 12.8375 28.2095 12.8061 28.125 12.6465C28.0724 12.4886 28.0598 12.353 28.0462 12.1872C28.0381 12.0925 28.0381 12.0925 28.0298 11.996C28.0269 11.9627 28.024 11.9294 28.0211 11.895C27.9035 10.551 27.6929 9.22176 26.6602 8.25195C26.0399 7.75842 25.3334 7.63237 24.5605 7.71484C24.365 7.75593 24.2002 7.81779 24.0234 7.91015C23.9815 7.93199 23.9396 7.95384 23.8964 7.97634C23.0401 8.45881 22.6408 9.23212 22.356 10.1397C22.1528 10.8786 22.0667 11.6624 22.0413 12.4273C22.0168 12.5777 21.9639 12.6699 21.875 12.793C21.7285 12.8906 21.7285 12.8906 21.5576 12.8815C21.3347 12.8297 21.3347 12.8297 21.2402 12.6953C21.0528 11.2141 21.5083 9.27658 22.4121 8.10547C22.9648 7.43878 23.707 6.96575 24.5758 6.85425C25.5933 6.7608 26.5058 7.00442 27.2963 7.67002Z" fill="#EB641B"/>
<path d="M33.252 35.9863C33.6387 35.9863 34.0254 35.9863 34.4238 35.9863C34.4245 36.1757 34.4252 36.365 34.4259 36.5601C34.4274 36.7441 34.4293 36.9282 34.4313 37.1123C34.4324 37.2398 34.4331 37.3674 34.4334 37.495C34.4338 37.6788 34.4358 37.8625 34.4381 38.0463C34.4379 38.103 34.4377 38.1597 34.4376 38.2182C34.4435 38.5501 34.4766 38.8164 34.7168 39.0625C34.9395 39.1927 35.148 39.1962 35.4004 39.1602C35.6788 39.058 35.8135 38.9133 35.944 38.6452C36.0248 38.4165 36.0158 38.1827 36.0161 37.9425C36.0169 37.8878 36.0177 37.8331 36.0185 37.7767C36.0209 37.6031 36.0219 37.4295 36.0229 37.2559C36.0243 37.1377 36.0258 37.0195 36.0273 36.9013C36.0311 36.6126 36.0331 36.3239 36.0352 36.0352C36.4219 36.0352 36.8086 36.0352 37.207 36.0352C37.207 37.3726 37.207 38.71 37.207 40.0879C36.8525 40.0879 36.498 40.0879 36.1328 40.0879C36.1328 39.9106 36.1328 39.7334 36.1328 39.5508C36.1006 39.5508 36.0684 39.5508 36.0352 39.5508C36.0227 39.5799 36.0102 39.6091 35.9974 39.6391C35.8589 39.8866 35.547 40.075 35.2829 40.1625C34.8152 40.2477 34.2942 40.2592 33.8867 39.9902C33.8354 39.958 33.784 39.9258 33.7311 39.8926C33.4486 39.6393 33.3016 39.2335 33.252 38.8672C33.2479 38.768 33.2462 38.6687 33.2464 38.5695C33.2464 38.5118 33.2464 38.4542 33.2464 38.3948C33.2468 38.3025 33.2468 38.3025 33.2472 38.2084C33.2473 38.1449 33.2473 38.0813 33.2474 38.0159C33.2476 37.8478 33.2481 37.6797 33.2486 37.5116C33.2491 37.3398 33.2493 37.1679 33.2496 36.9961C33.2501 36.6595 33.2509 36.3229 33.252 35.9863Z" fill="#ED6B19"/>
<path d="M32.7637 17.1387C32.8604 17.1628 32.8604 17.1628 32.959 17.1875C32.9944 18.4045 32.7252 19.4272 31.9824 20.4102C31.9514 20.4514 31.9204 20.4926 31.8884 20.5351C31.4945 21.0411 31.0712 21.4798 30.5664 21.875C30.5313 21.9053 30.4962 21.9356 30.46 21.9667C29.8874 22.4547 29.2058 22.8275 28.5431 23.1781C28.5053 23.1981 28.4675 23.2181 28.4286 23.2387C28.2334 23.3397 28.0435 23.4236 27.832 23.4863C27.8492 23.439 27.8663 23.3917 27.8839 23.3429C27.9456 23.1241 27.9381 22.9246 27.8809 22.7051C27.7732 22.5305 27.6783 22.4402 27.4902 22.3633C27.2154 22.3324 26.9655 22.3529 26.709 22.4609C26.7734 22.3965 26.8379 22.332 26.9043 22.2656C26.8882 22.2334 26.8721 22.2012 26.8555 22.168C26.6718 22.1985 26.5161 22.252 26.3458 22.3267C25.8912 22.52 25.4327 22.691 24.9512 22.8027C24.7672 22.8587 24.5916 22.9277 24.4141 23.0011C24.2351 23.0738 24.0704 23.1242 23.877 23.1445C23.8727 23.1121 23.8685 23.0797 23.8642 23.0463C23.8189 22.762 23.7754 22.5937 23.5352 22.4121C23.3747 22.3586 23.255 22.3584 23.0865 22.3602C23.0335 22.3607 22.9804 22.3611 22.9258 22.3616C22.8852 22.3621 22.8446 22.3627 22.8027 22.3633C22.8269 22.3149 22.8269 22.3149 22.8516 22.2656C22.916 22.2656 22.9805 22.2656 23.0469 22.2656C23.0469 22.2334 23.0469 22.2012 23.0469 22.168C22.9987 22.1691 22.9504 22.1702 22.9008 22.1714C22.8069 22.1727 22.8069 22.1727 22.7112 22.1741C22.6489 22.1752 22.5866 22.1763 22.5224 22.1775C22.3633 22.168 22.3633 22.168 22.2656 22.0703C22.3098 22.0701 22.3098 22.0701 22.3549 22.07C23.0722 22.0671 23.7894 22.0634 24.5067 22.0588C24.8535 22.0566 25.2004 22.0547 25.5473 22.0534C25.8819 22.0522 26.2165 22.0502 26.5512 22.0477C26.6789 22.0469 26.8067 22.0463 26.9345 22.046C27.1132 22.0455 27.292 22.0442 27.4707 22.0426C27.5237 22.0427 27.5767 22.0427 27.6313 22.0428C27.9434 22.0389 28.129 22.0126 28.36 21.7896C28.4407 21.6366 28.4278 21.5079 28.418 21.3379C28.4502 21.354 28.4824 21.3701 28.5156 21.3867C28.5156 21.4189 28.5156 21.4512 28.5156 21.4844C29.0493 21.2442 29.5574 21.0037 30.0293 20.6543C30.068 20.6259 30.068 20.6259 30.1074 20.5969C30.5665 20.2578 30.9982 19.8921 31.3965 19.4824C31.4327 19.4472 31.469 19.4119 31.5063 19.3756C31.5507 19.3303 31.595 19.285 31.6406 19.2383C31.6907 19.1871 31.6907 19.1871 31.7417 19.1349C32.2744 18.5697 32.6002 17.8965 32.7637 17.1387Z" fill="#AC2161"/>
<path d="M22.4005 20.9911C22.4496 20.9912 22.4987 20.9914 22.5493 20.9915C22.6303 20.9921 22.6303 20.9921 22.7131 20.9927C22.7698 20.9929 22.8266 20.9932 22.8851 20.9934C23.0736 20.9943 23.2621 20.9955 23.4507 20.9969C23.5483 20.9975 23.6459 20.9981 23.7436 20.9987C24.0158 21.0004 24.2879 21.0023 24.5601 21.0044C24.912 21.0071 25.2639 21.0092 25.6159 21.0108C25.8879 21.012 26.16 21.0138 26.432 21.016C26.5944 21.0173 26.7569 21.0183 26.9194 21.0189C27.1007 21.0196 27.282 21.0212 27.4633 21.023C27.5171 21.023 27.5708 21.023 27.6262 21.0231C27.9621 21.0277 28.139 21.0659 28.3875 21.3013C28.4668 21.4355 28.4668 21.4355 28.4698 21.6064C28.4089 21.8071 28.3356 21.8906 28.1738 22.0215C28.032 22.0688 27.9406 22.0769 27.793 22.0778C27.7447 22.0782 27.6964 22.0787 27.6467 22.0791C27.5938 22.0793 27.5409 22.0795 27.4865 22.0797C27.4028 22.0803 27.4028 22.0803 27.3175 22.0809C27.1327 22.0822 26.9478 22.083 26.763 22.0837C26.6999 22.0839 26.6368 22.0842 26.5719 22.0845C26.3068 22.0855 26.0418 22.0864 25.7768 22.087C25.3973 22.0878 25.0178 22.0894 24.6384 22.0922C24.3392 22.0943 24.0399 22.0951 23.7407 22.0954C23.6135 22.0957 23.4863 22.0965 23.3592 22.0976C23.1813 22.0992 23.0034 22.0992 22.8255 22.0988C22.7729 22.0996 22.7203 22.1004 22.6661 22.1012C22.2675 22.0979 22.2675 22.0979 22.0883 21.9539C21.9322 21.7815 21.8853 21.6641 21.8567 21.4355C21.8796 21.2522 21.943 21.1759 22.0703 21.0449C22.1901 20.985 22.2666 20.9904 22.4005 20.9911Z" fill="#FDF9FC"/>
<path d="M25.5585 27.1027C25.8924 27.2951 26.1076 27.5591 26.2207 27.9297C26.2778 28.3051 26.1896 28.5948 25.9766 28.9063C25.7515 29.1657 25.4762 29.3164 25.1354 29.3594C24.7519 29.3753 24.4172 29.2474 24.1211 29.0039C23.8383 28.6263 23.7898 28.3003 23.8281 27.832C23.9116 27.5073 24.1438 27.2858 24.4141 27.0996C24.77 26.924 25.201 26.938 25.5585 27.1027Z" fill="#FBFBFC"/>
<path d="M20.3228 37.0405C20.5244 37.1994 20.6711 37.4039 20.752 37.6465C20.7837 38.0758 20.7928 38.4909 20.5566 38.8672C20.376 39.0761 20.154 39.1914 19.8813 39.2271C19.587 39.2337 19.3677 39.221 19.1254 39.0448C18.8722 38.7993 18.7437 38.5233 18.7332 38.1752C18.7248 37.5227 18.7248 37.5227 18.9211 37.2791C18.9452 37.2553 18.9693 37.2315 18.9941 37.207C19.0188 37.1822 19.0434 37.1574 19.0687 37.1319C19.403 36.8273 19.9365 36.8188 20.3228 37.0405Z" fill="#FBFCFC"/>
<path d="M25.1503 37.0033C25.3902 37.1496 25.5473 37.3605 25.6561 37.616C25.729 38.0857 25.6964 38.4795 25.4303 38.8824C25.1909 39.1112 24.9733 39.2188 24.6399 39.2395C24.3408 39.227 24.0939 39.1233 23.877 38.916C23.6903 38.6447 23.6468 38.3888 23.6511 38.0646C23.6515 38.0238 23.6518 37.9829 23.6521 37.9409C23.6621 37.6597 23.7048 37.457 23.8905 37.2362C24.2539 36.8992 24.6862 36.8066 25.1503 37.0033Z" fill="#F9FBFC"/>
<path d="M40.4959 36.9493C40.8158 37.0976 40.9751 37.3263 41.1133 37.6465C41.1639 38.0609 41.1547 38.4636 40.918 38.8184C40.7347 39.0403 40.5482 39.1879 40.2565 39.2246C39.9503 39.2373 39.6993 39.2057 39.4531 39.0137C39.1775 38.7112 39.1491 38.4424 39.1449 38.0463C39.1435 38.0028 39.1421 37.9593 39.1406 37.9146C39.1375 37.5921 39.2019 37.414 39.4318 37.1773C39.7646 36.9131 40.0747 36.8201 40.4959 36.9493Z" fill="#FDFBFA"/>
<path d="M26.0101 26.8158C26.3165 27.0525 26.5707 27.4085 26.6276 27.7966C26.6583 28.2339 26.6856 28.6826 26.4114 29.0474C26.3807 29.0814 26.35 29.1154 26.3184 29.1504C26.2836 29.1904 26.2489 29.2305 26.2131 29.2717C25.98 29.5224 25.7792 29.7151 25.4263 29.7461C25.2996 29.7486 25.1753 29.7437 25.0488 29.7363C25.0036 29.7348 24.9584 29.7333 24.9119 29.7317C24.335 29.6998 23.9818 29.4324 23.5996 29.0112C23.3464 28.6521 23.3876 28.1529 23.4375 27.7344C23.4801 27.5673 23.5385 27.4382 23.6328 27.2949C23.662 27.2426 23.6912 27.1902 23.7213 27.1362C23.8489 26.9759 23.9878 26.8533 24.1699 26.7578C24.2183 26.7578 24.2666 26.7578 24.3164 26.7578C24.3164 26.7256 24.3164 26.6934 24.3164 26.6602C24.899 26.5022 25.4884 26.4794 26.0101 26.8158ZM23.9964 27.4855C23.7866 27.7899 23.7931 28.1087 23.8281 28.4668C23.9266 28.8007 24.1455 29.0343 24.4415 29.2114C24.7337 29.3602 25.0252 29.3934 25.3475 29.3232C25.7004 29.2065 25.9393 28.9976 26.12 28.6743C26.2555 28.3736 26.2831 28.1154 26.1774 27.8007C26.0186 27.4483 25.8086 27.2527 25.4822 27.0569C24.8884 26.833 24.3839 27.0321 23.9964 27.4855Z" fill="#3154AD"/>
<path d="M29.6494 14.6999C29.8111 14.7549 29.8845 14.7994 29.9805 14.9414C29.9727 15.2055 29.8602 15.3417 29.6814 15.5212C29.6318 15.5731 29.5823 15.625 29.5328 15.6769C29.5088 15.7017 29.4848 15.7265 29.4601 15.752C29.3797 15.8357 29.3028 15.9219 29.2267 16.0095C29.1868 16.0553 29.1868 16.0553 29.1462 16.102C29.0723 16.1881 28.9989 16.2745 28.9257 16.361C28.7741 16.5401 28.6208 16.7175 28.4668 16.8945C28.4378 16.9281 28.4088 16.9617 28.379 16.9963C28.2901 17.0985 28.2001 17.1996 28.1097 17.3004C28.0823 17.3323 28.0548 17.3641 28.0266 17.3969C27.8868 17.5505 27.8076 17.6196 27.6041 17.6807C27.4225 17.6752 27.3731 17.6574 27.2461 17.5323C27.2134 17.5007 27.1808 17.469 27.1471 17.4364C27.0256 17.3072 26.9078 17.1758 26.7941 17.0397C26.7073 16.9414 26.6142 16.8569 26.5167 16.7694C26.3898 16.6437 26.3686 16.6086 26.3306 16.4246C26.377 16.2155 26.4359 16.1376 26.6113 16.0156C26.8093 16.0156 26.9169 16.0617 27.0559 16.1957C27.1067 16.249 27.1569 16.3029 27.2064 16.3574C27.3924 16.569 27.3924 16.569 27.6367 16.6992C27.6491 16.6708 27.6616 16.6425 27.6744 16.6132C27.7409 16.4921 27.8146 16.4133 27.9135 16.317C27.9669 16.2644 27.9669 16.2644 28.0213 16.2107C28.0586 16.1746 28.0958 16.1384 28.1342 16.1011C28.3745 15.8664 28.6075 15.6301 28.8267 15.3754C28.9484 15.2343 29.0737 15.0975 29.2023 14.9628C29.2262 14.9362 29.2502 14.9096 29.2748 14.8822C29.4029 14.7494 29.4611 14.6967 29.6494 14.6999Z" fill="#F16233"/>
<path d="M22.2656 22.0703C24.1187 22.0703 25.9717 22.0703 27.8809 22.0703C27.8809 22.0864 27.8809 22.1025 27.8809 22.1191C27.8262 22.1206 27.8262 22.1206 27.7704 22.1221C27.6058 22.1267 27.4412 22.1321 27.2766 22.1375C27.2192 22.139 27.1618 22.1405 27.1027 22.142C27.0479 22.1439 26.9931 22.1458 26.9367 22.1478C26.8861 22.1493 26.8355 22.1508 26.7833 22.1524C26.6519 22.1562 26.6519 22.1562 26.5625 22.2656C26.4399 22.3165 26.3179 22.3639 26.1932 22.4091C26.1578 22.4221 26.1224 22.4351 26.0859 22.4485C25.458 22.6782 25.458 22.6782 25.1373 22.757C24.8862 22.8187 24.6526 22.9025 24.4141 23.0011C24.2351 23.0738 24.0704 23.1242 23.877 23.1445C23.8727 23.1121 23.8685 23.0797 23.8642 23.0463C23.8189 22.762 23.7754 22.5937 23.5352 22.4121C23.3747 22.3586 23.255 22.3584 23.0865 22.3602C23.0335 22.3607 22.9804 22.3611 22.9258 22.3616C22.8852 22.3621 22.8446 22.3627 22.8027 22.3633C22.8188 22.3311 22.835 22.2988 22.8516 22.2656C22.916 22.2656 22.9805 22.2656 23.0469 22.2656C23.0469 22.2334 23.0469 22.2012 23.0469 22.168C22.9987 22.1691 22.9504 22.1702 22.9008 22.1714C22.8382 22.1723 22.7756 22.1732 22.7112 22.1741C22.6177 22.1758 22.6177 22.1758 22.5224 22.1775C22.3633 22.168 22.3633 22.168 22.2656 22.0703Z" fill="#BA2A9B"/>
<path d="M23.9746 17.3828C24.6353 17.3828 25.2959 17.3828 25.9766 17.3828C26.1719 17.7734 26.1719 17.7734 26.123 18.1641C25.4624 18.1641 24.8018 18.1641 24.1211 18.1641C24.0728 17.9062 24.0244 17.6484 23.9746 17.3828Z" fill="#EA5345"/>
<path d="M23.3887 22.3145C23.5993 22.3987 23.7706 22.5516 23.877 22.7539C23.9185 22.9705 23.8925 23.1476 23.822 23.3551C23.7052 23.5225 23.624 23.595 23.4375 23.6816C23.2104 23.7214 22.9986 23.7374 22.7932 23.6208C22.6388 23.4913 22.4762 23.3481 22.4463 23.1403C22.4446 22.8124 22.5094 22.6662 22.7325 22.4213C22.9307 22.2643 23.1479 22.2781 23.3887 22.3145Z" fill="#FCF8FC"/>
<path d="M21.7773 17.3828C22.3574 17.3828 22.9375 17.3828 23.5352 17.3828C23.6816 17.9199 23.6816 17.9199 23.6816 18.1641C23.1499 18.1641 22.6182 18.1641 22.0703 18.1641C21.7773 17.5293 21.7773 17.5293 21.7773 17.3828Z" fill="#EA564E"/>
<path d="M24.2188 18.8477C24.8149 18.8477 25.4111 18.8477 26.0254 18.8477C25.9603 19.1081 25.8952 19.3685 25.8301 19.6289C25.3467 19.6289 24.8633 19.6289 24.3652 19.6289C24.3169 19.3711 24.2686 19.1133 24.2188 18.8477Z" fill="#E04A64"/>
<path d="M26.556 18.8421C26.6171 18.8424 26.6783 18.8426 26.7412 18.8429C26.7899 18.843 26.7899 18.843 26.8395 18.8431C26.9435 18.8434 27.0475 18.844 27.1515 18.8446C27.2218 18.8448 27.2922 18.8451 27.3625 18.8453C27.5353 18.8458 27.7081 18.8467 27.8809 18.8477C27.9297 18.9941 27.9297 18.9941 27.6367 19.6289C27.1694 19.6289 26.7021 19.6289 26.2207 19.6289C26.2439 19.5091 26.267 19.3892 26.2909 19.2657C26.2981 19.228 26.3053 19.1902 26.3127 19.1512C26.3721 18.8494 26.3721 18.8494 26.556 18.8421Z" fill="#DD4461"/>
<path d="M22.3145 18.8477C22.814 18.8477 23.3135 18.8477 23.8281 18.8477C23.8926 19.1055 23.957 19.3633 24.0234 19.6289C23.5562 19.6289 23.0889 19.6289 22.6074 19.6289C22.3633 19.0918 22.3633 19.0918 22.3145 18.8477Z" fill="#D94468"/>
<path d="M31.6895 22.168C31.7217 22.168 31.7539 22.168 31.7871 22.168C31.722 22.3638 31.6419 22.4739 31.4911 22.6135C31.3349 22.7571 31.3349 22.7571 31.25 22.9492C31.1499 23.0339 31.0502 23.1127 30.9448 23.1903C30.8886 23.2324 30.8324 23.2746 30.7762 23.3168C30.749 23.3371 30.7217 23.3574 30.6937 23.3784C30.5407 23.4937 30.3949 23.6083 30.2612 23.7457C29.9989 24.0021 29.7252 24.2065 29.3945 24.3652C29.1416 24.5171 28.8946 24.6748 28.6621 24.8566C28.4807 24.9956 28.2892 25.1007 28.0874 25.2073C27.8995 25.3093 27.7165 25.4185 27.533 25.528C25.9499 26.4648 25.9499 26.4648 25.5371 26.4648C25.5371 26.5132 25.5371 26.5615 25.5371 26.6113C25.231 26.5952 24.9248 26.5791 24.6094 26.5625C24.6094 26.5464 24.6094 26.5303 24.6094 26.5137C24.6432 26.513 24.677 26.5123 24.7118 26.5116C25.6761 26.4646 26.5657 25.9676 27.3607 25.4549C27.5113 25.3581 27.6648 25.2702 27.8229 25.1862C28.2619 24.952 28.6713 24.6699 29.0839 24.3928C29.2456 24.2845 29.408 24.179 29.5746 24.0784C29.7361 23.9829 29.7361 23.9829 29.8492 23.8617C29.8764 23.8345 29.9036 23.8073 29.9316 23.7793C29.98 23.7793 30.0283 23.7793 30.0781 23.7793C30.0781 23.7471 30.0781 23.7148 30.0781 23.6816C30.1748 23.6151 30.2726 23.5501 30.3711 23.4863C30.3963 23.4612 30.4214 23.436 30.4474 23.41C30.5176 23.3398 30.5176 23.3398 30.6274 23.2758C30.8008 23.1694 30.9619 23.047 31.1035 22.9004C31.1035 22.8682 31.1035 22.8359 31.1035 22.8027C31.0552 22.8027 31.0068 22.8027 30.957 22.8027C31.0017 22.7651 31.0464 22.7275 31.0925 22.6887C31.1511 22.6392 31.2097 22.5897 31.2683 22.5403C31.2978 22.5155 31.3272 22.4907 31.3576 22.4651C31.3859 22.4412 31.4142 22.4173 31.4434 22.3927C31.4825 22.3597 31.4825 22.3597 31.5224 22.326C31.5802 22.2757 31.6353 22.2222 31.6895 22.168Z" fill="#987F87"/>
<path d="M33.252 35.9863C33.6387 35.9863 34.0254 35.9863 34.4238 35.9863C34.4238 36.8726 34.4238 37.7588 34.4238 38.6719C34.4077 38.6719 34.3916 38.6719 34.375 38.6719C34.375 37.8179 34.375 36.9639 34.375 36.084C34.0527 36.1001 33.7305 36.1162 33.3984 36.1328C33.3823 37.0674 33.3662 38.002 33.3496 38.9648C33.252 38.8672 33.252 38.8672 33.2402 38.7461C33.2404 38.6951 33.2406 38.6442 33.2409 38.5916C33.2409 38.534 33.2409 38.4763 33.2409 38.4169C33.2414 38.3544 33.2419 38.2919 33.2424 38.2275C33.2426 38.1637 33.2427 38.0999 33.2428 38.0341C33.2432 37.8644 33.2442 37.6947 33.2452 37.525C33.2462 37.3519 33.2467 37.1788 33.2472 37.0056C33.2482 36.6658 33.25 36.3261 33.252 35.9863Z" fill="#F07A28"/>
<path d="M23.9258 26.0254C23.7928 26.114 23.7058 26.1511 23.5556 26.1942C23.512 26.2068 23.4684 26.2193 23.4235 26.2323C23.3798 26.2446 23.336 26.2569 23.291 26.2695C23.2344 26.2858 23.2344 26.2858 23.1767 26.3024C21.9362 26.6542 20.6483 26.9286 19.367 27.0765C19.1981 27.0886 19.1981 27.0886 19.0918 27.1484C19.124 27.2129 19.1562 27.2773 19.1895 27.3438C19.0677 27.285 18.9609 27.2239 18.8477 27.1484C18.8477 27.1162 18.8477 27.084 18.8477 27.0508C18.9142 27.0398 18.9142 27.0398 18.9821 27.0285C21.2918 26.6717 21.2918 26.6717 23.5444 26.07C23.6808 26.0257 23.7836 26.017 23.9258 26.0254Z" fill="#ED4C7C"/>
<path d="M23.0957 32.2754C24.2881 32.2754 25.4805 32.2754 26.709 32.2754C26.5625 32.4219 26.5625 32.4219 26.4381 32.4345C26.3865 32.4323 26.3349 32.4302 26.2817 32.428C25.9049 32.4193 25.5314 32.4349 25.1549 32.4534C24.9472 32.4633 24.7407 32.4718 24.5327 32.4692C24.372 32.4584 24.372 32.4584 24.2676 32.5195C24.1424 32.4989 24.0205 32.4693 23.897 32.4402C23.7727 32.4116 23.7727 32.4116 23.6328 32.4707C23.6006 32.4546 23.5684 32.4385 23.5352 32.4219C23.452 32.4108 23.3685 32.4019 23.2849 32.3944C23.2405 32.3903 23.196 32.3862 23.1503 32.382C23.1161 32.3791 23.082 32.3761 23.0469 32.373C23.063 32.3408 23.0791 32.3086 23.0957 32.2754Z" fill="#C4C7CF"/>
<path d="M31.6895 22.168C31.7217 22.168 31.7539 22.168 31.7871 22.168C31.722 22.3638 31.6419 22.4739 31.4911 22.6135C31.3349 22.7571 31.3349 22.7571 31.25 22.9492C31.1499 23.0339 31.0502 23.1127 30.9448 23.1903C30.8886 23.2324 30.8324 23.2746 30.7762 23.3168C30.749 23.3371 30.7217 23.3574 30.6937 23.3784C30.5407 23.4937 30.3949 23.6083 30.2612 23.7457C30.0001 24.0009 29.7261 24.2105 29.3945 24.3652C29.2947 24.4276 29.1984 24.4937 29.1016 24.5605C29.0693 24.5444 29.0371 24.5283 29.0039 24.5117C29.183 24.3191 29.3829 24.1968 29.6066 24.0616C29.7391 23.9793 29.7391 23.9793 29.8416 23.8663C29.9316 23.7793 29.9316 23.7793 30.0781 23.7793C30.0781 23.7471 30.0781 23.7148 30.0781 23.6816C30.1748 23.6151 30.2726 23.5501 30.3711 23.4863C30.3963 23.4612 30.4214 23.436 30.4474 23.41C30.5176 23.3398 30.5176 23.3398 30.6274 23.2758C30.8008 23.1694 30.9619 23.047 31.1035 22.9004C31.1035 22.8682 31.1035 22.8359 31.1035 22.8027C31.0552 22.8027 31.0068 22.8027 30.957 22.8027C31.0017 22.7651 31.0464 22.7275 31.0925 22.6887C31.1511 22.6392 31.2097 22.5897 31.2683 22.5403C31.2978 22.5155 31.3272 22.4907 31.3576 22.4651C31.3859 22.4412 31.4142 22.4173 31.4434 22.3927C31.4695 22.3707 31.4956 22.3487 31.5224 22.326C31.5802 22.2757 31.6353 22.2222 31.6895 22.168Z" fill="#848B89"/>
<path d="M27.0111 25.7507C27.0403 25.7608 27.0695 25.7709 27.0996 25.7812C25.856 26.4648 25.856 26.4648 25.5371 26.4648C25.5371 26.5132 25.5371 26.5615 25.5371 26.6113C25.231 26.5952 24.9248 26.5791 24.6094 26.5625C24.6094 26.5464 24.6094 26.5303 24.6094 26.5137C24.6432 26.513 24.677 26.5123 24.7118 26.5116C25.3723 26.4794 26.4775 25.6593 27.0111 25.7507Z" fill="#A06C8A"/>
<path d="M16.748 19.3359C16.7642 19.3359 16.7803 19.3359 16.7969 19.3359C16.807 19.8033 16.7382 20.2337 16.6268 20.6862C16.5655 20.9361 16.5167 21.1854 16.4791 21.4401C16.4712 21.4708 16.4632 21.5016 16.4551 21.5332C16.4067 21.5574 16.4067 21.5574 16.3574 21.582C16.4062 21.0654 16.4857 20.5572 16.5802 20.047C16.591 19.9883 16.6019 19.9295 16.613 19.869C16.6927 19.4466 16.6927 19.4466 16.748 19.3359Z" fill="#BC3399"/>
<path d="M23.9746 17.3828C24.6353 17.3828 25.2959 17.3828 25.9766 17.3828C25.9604 17.4312 25.9443 17.4795 25.9277 17.5293C25.3154 17.5132 24.7031 17.4971 24.0723 17.4805C24.0562 17.5127 24.04 17.5449 24.0234 17.5781C24.0073 17.5137 23.9912 17.4492 23.9746 17.3828Z" fill="#EE6751"/>
<path d="M23.9258 26.0254C23.7942 26.1131 23.7095 26.1503 23.5611 26.193C23.5177 26.2056 23.4744 26.2181 23.4297 26.231C23.1968 26.2957 22.9634 26.3582 22.7295 26.4191C22.6822 26.4316 22.635 26.4441 22.5863 26.4569C22.3587 26.5163 22.1307 26.5731 21.9009 26.6233C21.863 26.6317 21.825 26.64 21.7858 26.6486C21.672 26.661 21.5928 26.6459 21.4844 26.6113C21.9625 26.4468 22.4506 26.3358 22.9436 26.2259C23.0233 26.208 23.0233 26.208 23.1047 26.1898C23.1523 26.1793 23.1999 26.1688 23.2489 26.1579C23.3925 26.1241 23.3925 26.1241 23.5441 26.0704C23.6807 26.0257 23.7833 26.017 23.9258 26.0254Z" fill="#E1576A"/>
<path d="M23.4375 22.1191C24.501 22.1191 25.5645 22.1191 26.6602 22.1191C26.5625 22.2656 26.5625 22.2656 26.4099 22.2992C26.3636 22.3042 26.3173 22.3093 26.2695 22.3145C26.2856 22.2822 26.3018 22.25 26.3184 22.2168C24.8923 22.1926 24.8923 22.1926 23.4375 22.168C23.4375 22.1519 23.4375 22.1357 23.4375 22.1191Z" fill="#B51988"/>
<path d="M28.5156 26.3184C28.5479 26.3345 28.5801 26.3506 28.6133 26.3672C28.1621 26.8184 27.7109 27.2695 27.2461 27.7344C27.2461 27.5217 27.3779 27.4283 27.5177 27.2827C27.5446 27.2542 27.5715 27.2257 27.5992 27.1964C27.6764 27.1149 27.7541 27.0339 27.832 26.9531C27.866 26.9177 27.9 26.8823 27.935 26.8457C28.119 26.658 28.314 26.487 28.5156 26.3184Z" fill="#4B62B5"/>
<path d="M23.8281 31.3477C23.8494 31.366 23.8707 31.3843 23.8926 31.4032C24.0814 31.5654 24.2713 31.7259 24.4629 31.8848C24.4146 31.8848 24.3662 31.8848 24.3164 31.8848C24.2356 31.8859 24.1548 31.887 24.074 31.8882C23.9768 31.8891 23.8796 31.89 23.7823 31.8909C23.7334 31.8917 23.6845 31.8925 23.6341 31.8933C23.5869 31.8937 23.5397 31.894 23.4911 31.8943C23.448 31.8948 23.405 31.8953 23.3606 31.8959C23.2344 31.884 23.1554 31.8509 23.0469 31.7871C23.1181 31.78 23.1893 31.7729 23.2605 31.7657C23.3266 31.7591 23.3266 31.7591 23.394 31.7524C23.6038 31.7314 23.8136 31.7104 24.0234 31.6895C23.9751 31.632 23.9751 31.632 23.9258 31.5735C23.8281 31.4453 23.8281 31.4453 23.8281 31.3477Z" fill="#BFC2CF"/>
<path d="M26.8555 22.1191C27.21 22.1191 27.5645 22.1191 27.9297 22.1191C27.9297 22.1353 27.9297 22.1514 27.9297 22.168C27.7524 22.168 27.5752 22.168 27.3926 22.168C27.3926 22.2002 27.3926 22.2324 27.3926 22.2656C27.4731 22.2817 27.5537 22.2979 27.6367 22.3145C27.6206 22.3467 27.6045 22.3789 27.5879 22.4121C27.5557 22.396 27.5234 22.3799 27.4902 22.3633C27.2129 22.3418 26.9684 22.3517 26.709 22.4609C26.7734 22.3965 26.8379 22.332 26.9043 22.2656C26.8882 22.2173 26.8721 22.1689 26.8555 22.1191Z" fill="#AE1D78"/>
<path d="M26.0162 31.6223C26.2096 31.6287 26.347 31.6871 26.5137 31.7871C26.3651 31.8321 26.2494 31.8336 26.0956 31.8207C25.8173 31.8149 25.6383 31.9232 25.4076 32.0696C25.3698 32.0892 25.3319 32.1087 25.293 32.1289C25.2446 32.1128 25.1963 32.0967 25.1465 32.0801C25.1836 32.0606 25.2206 32.0412 25.2588 32.0211C25.3074 31.9953 25.3559 31.9694 25.4059 31.9427C25.454 31.9173 25.5022 31.8918 25.5518 31.8655C25.6821 31.7958 25.6821 31.7958 25.7626 31.7053C25.8301 31.6406 25.8301 31.6406 26.0162 31.6223Z" fill="#ADB2C3"/>
<path d="M32.7637 17.1387C32.8281 17.1548 32.8926 17.1709 32.959 17.1875C32.959 17.4937 32.959 17.7998 32.959 18.1152C32.9429 18.1152 32.9268 18.1152 32.9102 18.1152C32.9102 17.8896 32.9102 17.6641 32.9102 17.4316C32.7678 17.574 32.7293 17.643 32.663 17.8253C32.5785 18.0562 32.5785 18.0562 32.4707 18.1641C32.5032 18.031 32.5389 17.8994 32.5777 17.7681C32.5886 17.7313 32.5994 17.6945 32.6106 17.6565C32.6275 17.5996 32.6275 17.5996 32.6447 17.5415C32.6561 17.5028 32.6675 17.4641 32.6793 17.4242C32.7074 17.329 32.7355 17.2338 32.7637 17.1387Z" fill="#D1405E"/>
<path d="M31.6895 22.168C31.7217 22.168 31.7539 22.168 31.7871 22.168C31.7176 22.3897 31.6054 22.5117 31.4392 22.6715C31.3948 22.7146 31.3503 22.7577 31.3046 22.8022C31.2704 22.8346 31.2363 22.867 31.2012 22.9004C31.1689 22.8682 31.1367 22.8359 31.1035 22.8027C31.0552 22.8027 31.0068 22.8027 30.957 22.8027C31.0017 22.7651 31.0464 22.7275 31.0925 22.6887C31.1511 22.6392 31.2097 22.5897 31.2683 22.5403C31.3125 22.5031 31.3125 22.5031 31.3576 22.4651C31.3859 22.4412 31.4142 22.4173 31.4434 22.3927C31.4695 22.3707 31.4956 22.3487 31.5224 22.326C31.5802 22.2757 31.6353 22.2222 31.6895 22.168Z" fill="#959174"/>
<path d="M27.9785 22.8516C27.9946 22.8516 28.0107 22.8516 28.0273 22.8516C28.0273 22.9966 28.0273 23.1416 28.0273 23.291C28.0685 23.2699 28.1097 23.2487 28.1521 23.2269C28.2056 23.1997 28.2591 23.1725 28.3142 23.1445C28.3675 23.1173 28.4207 23.0901 28.4756 23.0621C28.6133 22.998 28.6133 22.998 28.7109 22.998C28.7109 23.0303 28.7109 23.0625 28.7109 23.0957C28.437 23.2246 28.1631 23.3535 27.8809 23.4863C27.8647 23.4541 27.8486 23.4219 27.832 23.3887C27.8638 23.307 27.8965 23.2257 27.9297 23.1445C27.948 23.0472 27.9648 22.9496 27.9785 22.8516Z" fill="#881F6D"/>
<path d="M26.2207 29.1016C26.2529 29.1177 26.2852 29.1338 26.3184 29.1504C25.7894 29.7226 25.7894 29.7226 25.3693 29.7455C25.328 29.7425 25.2867 29.7394 25.2441 29.7363C25.366 29.6144 25.4714 29.5944 25.6348 29.541C25.8605 29.4443 26.0057 29.3309 26.1719 29.1504C26.188 29.1343 26.2041 29.1182 26.2207 29.1016Z" fill="#2C47A6"/>
<path d="M28.9551 24.4629C28.9873 24.479 29.0195 24.4951 29.0527 24.5117C28.8866 24.6876 28.7206 24.823 28.5156 24.9512C28.4713 24.9794 28.427 25.0076 28.3813 25.0366C28.2715 25.0977 28.2715 25.0977 28.1738 25.0977C28.242 24.893 28.3887 24.8326 28.5645 24.7253C28.7708 24.6079 28.7708 24.6079 28.9551 24.4629Z" fill="#908683"/>
<path d="M27.6855 29.9316C27.7178 29.9478 27.75 29.9639 27.7832 29.9805C27.6826 30.0742 27.5819 30.1677 27.4811 30.2612C27.4528 30.2875 27.4246 30.3139 27.3955 30.341C26.9414 30.7617 26.9414 30.7617 26.8066 30.7617C26.8066 30.7295 26.8066 30.6973 26.8066 30.6641C26.9083 30.5708 26.9083 30.5708 27.0416 30.4657C27.1071 30.4135 27.1071 30.4135 27.1738 30.3602C27.2949 30.2734 27.2949 30.2734 27.4414 30.2246C27.4575 30.1763 27.4736 30.1279 27.4902 30.0781C27.5909 29.9957 27.5909 29.9957 27.6855 29.9316Z" fill="#26469B"/>
<path d="M25.0977 30.957C25.1505 31.1155 25.1426 31.1534 25.1007 31.308C25.0446 31.5401 24.9867 31.8092 25.0977 32.0312C25.0171 32.0312 24.9365 32.0312 24.8535 32.0312C24.8857 32.0151 24.918 31.999 24.9512 31.9824C24.9495 31.9329 24.9478 31.8835 24.946 31.8325C24.9446 31.7665 24.9433 31.7005 24.942 31.6345C24.9402 31.5858 24.9402 31.5858 24.9383 31.5361C24.9349 31.3052 24.9803 31.1547 25.0977 30.957Z" fill="#39369C"/>
<path d="M26.4648 31.1523C26.3834 31.3287 26.2934 31.4887 26.1719 31.6406C26.0132 31.6833 26.0132 31.6833 25.8789 31.6895C26.3315 31.1523 26.3315 31.1523 26.4648 31.1523Z" fill="#E4E6ED"/>
<path d="M16.748 19.3359C16.7642 19.3359 16.7803 19.3359 16.7969 19.3359C16.8129 20.0739 16.8129 20.0739 16.6504 20.3613C16.5756 20.0322 16.5951 19.6418 16.748 19.3359Z" fill="#D03686"/>
<path d="M8.25195 38.6719C8.30029 38.688 8.34863 38.7041 8.39844 38.7207C8.34386 38.8338 8.28888 38.9467 8.23364 39.0594C8.21042 39.1077 8.21042 39.1077 8.18672 39.157C8.0677 39.3988 8.0677 39.3988 7.95898 39.4531C7.98222 39.1588 8.1151 38.9274 8.25195 38.6719Z" fill="#173F88"/>
<path d="M22.3633 22.1191C22.7017 22.1191 23.04 22.1191 23.3887 22.1191C23.3726 22.1675 23.3564 22.2158 23.3398 22.2656C23.2432 22.2656 23.1465 22.2656 23.0469 22.2656C23.0469 22.2334 23.0469 22.2012 23.0469 22.168C22.8213 22.168 22.5957 22.168 22.3633 22.168C22.3633 22.1519 22.3633 22.1357 22.3633 22.1191Z" fill="#B71686"/>
<path d="M32.5684 15.4297C32.666 15.5273 32.666 15.5273 32.6843 15.6424C32.6602 15.8127 32.5958 15.8667 32.4707 15.9821C32.4344 16.0161 32.3982 16.0502 32.3608 16.0852C32.3326 16.1106 32.3044 16.136 32.2754 16.1621C32.2432 16.146 32.2109 16.1299 32.1777 16.1133C32.2241 16.0479 32.271 15.9829 32.3181 15.918C32.3572 15.8636 32.3572 15.8636 32.3971 15.8081C32.4214 15.7799 32.4457 15.7517 32.4707 15.7227C32.5029 15.7227 32.5352 15.7227 32.5684 15.7227C32.5684 15.626 32.5684 15.5293 32.5684 15.4297Z" fill="#EF5F39"/>
<path d="M23.8281 31.3477C23.8517 31.3682 23.8752 31.3888 23.8995 31.41C23.9303 31.4368 23.9611 31.4635 23.9929 31.4911C24.0235 31.5177 24.0541 31.5443 24.0856 31.5718C24.1678 31.644 24.1678 31.644 24.2676 31.6895C24.2676 31.7217 24.2676 31.7539 24.2676 31.7871C24.1064 31.7871 23.9453 31.7871 23.7793 31.7871C23.8115 31.7549 23.8437 31.7227 23.877 31.6895C23.9253 31.6895 23.9736 31.6895 24.0234 31.6895C23.9751 31.632 23.9751 31.632 23.9258 31.5735C23.8281 31.4453 23.8281 31.4453 23.8281 31.3477Z" fill="#D4D5DF"/>
<path d="M29.1016 11.2793C29.1821 11.2793 29.2627 11.2793 29.3457 11.2793C29.2974 11.3518 29.2974 11.3518 29.248 11.4258C29.2362 11.5822 29.2362 11.5822 29.2419 11.7523C29.2428 11.8099 29.2437 11.8675 29.2446 11.9268C29.2457 11.971 29.2469 12.0151 29.248 12.0605C29.1085 11.921 29.1305 11.8092 29.1199 11.615C29.1162 11.5524 29.1126 11.4899 29.1088 11.4254C29.1064 11.3772 29.104 11.329 29.1016 11.2793Z" fill="#FDBD21"/>
<path d="M33.6914 21.7773C33.7236 21.7935 33.7559 21.8096 33.7891 21.8262C33.8179 21.9202 33.8179 21.9202 33.8348 22.0367C33.8413 22.0748 33.8478 22.1129 33.8545 22.1521C33.8379 22.2656 33.8379 22.2656 33.5938 22.4609C33.626 22.2354 33.6582 22.0098 33.6914 21.7773Z" fill="#1892D0"/>
<path d="M33.3008 19.4336C33.333 19.4497 33.3652 19.4658 33.3984 19.4824C33.4187 19.594 33.4187 19.594 33.429 19.7296C33.4326 19.7745 33.4363 19.8194 33.44 19.8656C33.4424 19.9003 33.4448 19.935 33.4473 19.9707C33.3989 19.9385 33.3506 19.9063 33.3008 19.873C33.2686 19.9053 33.2363 19.9375 33.2031 19.9707C33.252 19.608 33.252 19.608 33.3008 19.4336Z" fill="#3DB7E3"/>
<path d="M28.9062 13.0371C28.9385 13.0532 28.9707 13.0693 29.0039 13.0859C28.6914 13.3061 28.6914 13.3061 28.5156 13.3301C28.4111 13.3028 28.4111 13.3028 28.3081 13.2599C28.2736 13.2459 28.2391 13.2318 28.2036 13.2174C28.1777 13.2062 28.1517 13.1951 28.125 13.1836C28.2747 13.1087 28.4237 13.1364 28.5885 13.1426C28.7195 13.1342 28.7914 13.0965 28.9062 13.0371Z" fill="#FBB42B"/>
<path d="M26.0864 31.6254C26.2523 31.6442 26.3689 31.7063 26.5137 31.7871C26.3539 31.8395 26.2486 31.8307 26.0864 31.7902C26.0474 31.7807 26.0084 31.7712 25.9682 31.7614C25.9387 31.7537 25.9093 31.7461 25.8789 31.7383C25.9766 31.6406 25.9766 31.6406 26.0864 31.6254Z" fill="#CACDD3"/>
<path d="M25.5371 26.4648C25.5371 26.5132 25.5371 26.5615 25.5371 26.6113C25.231 26.5952 24.9248 26.5791 24.6094 26.5625C24.6094 26.5464 24.6094 26.5303 24.6094 26.5137C24.9206 26.4667 25.2226 26.4596 25.5371 26.4648Z" fill="#905F92"/>
<path d="M18.3594 36.3281C18.3594 36.4746 18.3594 36.4746 18.2846 36.5637C18.2529 36.5937 18.2212 36.6237 18.1885 36.6547C18.1568 36.6851 18.125 36.7155 18.0923 36.7468C18.0677 36.7698 18.043 36.7927 18.0176 36.8164C17.9854 36.8003 17.9531 36.7842 17.9199 36.7676C17.9655 36.7125 18.0113 36.6576 18.0573 36.6028C18.0827 36.5722 18.1082 36.5416 18.1345 36.5101C18.2129 36.4258 18.2129 36.4258 18.3594 36.3281Z" fill="#1B6BAC"/>
<path d="M22.3633 11.2793C22.4761 11.2793 22.5889 11.2793 22.7051 11.2793C22.6729 11.3115 22.6406 11.3437 22.6074 11.377C22.5591 11.377 22.5107 11.377 22.4609 11.377C22.4609 11.4736 22.4609 11.5703 22.4609 11.6699C22.4126 11.6941 22.4126 11.6941 22.3633 11.7188C22.3633 11.5737 22.3633 11.4287 22.3633 11.2793Z" fill="#FAAF2B"/>
<path d="M20.4102 28.3691C20.6849 28.4555 20.8388 28.6215 20.9961 28.8574C20.8392 28.7871 20.7216 28.6997 20.5933 28.5858C20.5588 28.5555 20.5243 28.5253 20.4887 28.4941C20.4628 28.469 20.4369 28.4438 20.4102 28.418C20.4102 28.4019 20.4102 28.3857 20.4102 28.3691Z" fill="#CC2C92"/>
<path d="M26.5137 18.0176C26.6775 18.0468 26.7763 18.1077 26.9043 18.2129C26.7754 18.2129 26.6465 18.2129 26.5137 18.2129C26.5137 18.1484 26.5137 18.084 26.5137 18.0176Z" fill="#F3615B"/>
<path d="M26.6113 27.8809C26.6274 27.8809 26.6436 27.8809 26.6602 27.8809C26.6602 28.0098 26.6602 28.1387 26.6602 28.2715C26.6924 28.2715 26.7246 28.2715 26.7578 28.2715C26.7256 28.3521 26.6934 28.4326 26.6602 28.5156C26.644 28.5156 26.6279 28.5156 26.6113 28.5156C26.6113 28.3062 26.6113 28.0967 26.6113 27.8809Z" fill="#574FB6"/>
<path d="M23.3887 22.1191C23.4209 22.1514 23.4531 22.1836 23.4863 22.2168C23.3554 22.3477 23.2719 22.3333 23.0896 22.345C23.0361 22.3486 22.9826 22.3523 22.9275 22.356C22.8863 22.3584 22.8451 22.3608 22.8027 22.3633C22.8188 22.3311 22.835 22.2988 22.8516 22.2656C23.0127 22.2656 23.1738 22.2656 23.3398 22.2656C23.356 22.2173 23.3721 22.1689 23.3887 22.1191Z" fill="#C12F96"/>
</svg>
